<?xml version="1.0" encoding="utf-8" standalone="no"?>
<!DOCTYPE svg PUBLIC "-//W3C//DTD SVG 1.1//EN"
  "http://www.w3.org/Graphics/SVG/1.1/DTD/svg11.dtd">
<!-- Created with matplotlib (http://matplotlib.org/) -->
<svg height="432pt" version="1.1" viewBox="0 0 576 432" width="576pt" xmlns="http://www.w3.org/2000/svg" xmlns:xlink="http://www.w3.org/1999/xlink">
 <defs>
  <style type="text/css">
*{stroke-linecap:butt;stroke-linejoin:round;stroke-miterlimit:100000;}
  </style>
 </defs>
 <g id="figure_1">
  <g id="patch_1">
   <path d="M 0 432 
L 576 432 
L 576 0 
L 0 0 
z
" style="fill:#ffffff;"/>
  </g>
  <g id="axes_1">
   <g id="patch_2">
    <path d="M 72 388.8 
L 518.4 388.8 
L 518.4 43.2 
L 72 43.2 
z
" style="fill:#ffffff;"/>
   </g>
   <g id="line2d_1">
    <defs>
     <path d="M 0 3 
C 0.795609 3 1.55874 2.683901 2.12132 2.12132 
C 2.683901 1.55874 3 0.795609 3 0 
C 3 -0.795609 2.683901 -1.55874 2.12132 -2.12132 
C 1.55874 -2.683901 0.795609 -3 0 -3 
C -0.795609 -3 -1.55874 -2.683901 -2.12132 -2.12132 
C -2.683901 -1.55874 -3 -0.795609 -3 0 
C -3 0.795609 -2.683901 1.55874 -2.12132 2.12132 
C -1.55874 2.683901 -0.795609 3 0 3 
z
" id="m5be2b32c11" style="stroke:#000000;stroke-width:0.5;"/>
    </defs>
    <g clip-path="url(#pa0eb743309)">
     <use style="fill:#0000ff;stroke:#000000;stroke-width:0.5;" x="78.3771428571" xlink:href="#m5be2b32c11" y="43.2"/>
     <use style="fill:#0000ff;stroke:#000000;stroke-width:0.5;" x="84.7542857143" xlink:href="#m5be2b32c11" y="90.0150941161"/>
     <use style="fill:#0000ff;stroke:#000000;stroke-width:0.5;" x="91.1314285714" xlink:href="#m5be2b32c11" y="124.531150424"/>
     <use style="fill:#0000ff;stroke:#000000;stroke-width:0.5;" x="97.5085714286" xlink:href="#m5be2b32c11" y="146.052070453"/>
     <use style="fill:#0000ff;stroke:#000000;stroke-width:0.5;" x="103.885714286" xlink:href="#m5be2b32c11" y="163.008982202"/>
     <use style="fill:#0000ff;stroke:#000000;stroke-width:0.5;" x="110.262857143" xlink:href="#m5be2b32c11" y="171.957685293"/>
     <use style="fill:#0000ff;stroke:#000000;stroke-width:0.5;" x="116.64" xlink:href="#m5be2b32c11" y="184.198525314"/>
     <use style="fill:#0000ff;stroke:#000000;stroke-width:0.5;" x="123.017142857" xlink:href="#m5be2b32c11" y="204.478636928"/>
     <use style="fill:#0000ff;stroke:#000000;stroke-width:0.5;" x="129.394285714" xlink:href="#m5be2b32c11" y="208.873468826"/>
     <use style="fill:#0000ff;stroke:#000000;stroke-width:0.5;" x="135.771428571" xlink:href="#m5be2b32c11" y="216.046498202"/>
     <use style="fill:#0000ff;stroke:#000000;stroke-width:0.5;" x="142.148571429" xlink:href="#m5be2b32c11" y="228.253392088"/>
     <use style="fill:#0000ff;stroke:#000000;stroke-width:0.5;" x="148.525714286" xlink:href="#m5be2b32c11" y="232.325177369"/>
     <use style="fill:#0000ff;stroke:#000000;stroke-width:0.5;" x="154.902857143" xlink:href="#m5be2b32c11" y="238.690150985"/>
     <use style="fill:#0000ff;stroke:#000000;stroke-width:0.5;" x="161.28" xlink:href="#m5be2b32c11" y="242.918836915"/>
     <use style="fill:#0000ff;stroke:#000000;stroke-width:0.5;" x="167.657142857" xlink:href="#m5be2b32c11" y="244.788694424"/>
     <use style="fill:#0000ff;stroke:#000000;stroke-width:0.5;" x="174.034285714" xlink:href="#m5be2b32c11" y="261.577102009"/>
     <use style="fill:#0000ff;stroke:#000000;stroke-width:0.5;" x="180.411428571" xlink:href="#m5be2b32c11" y="264.43159523"/>
     <use style="fill:#0000ff;stroke:#000000;stroke-width:0.5;" x="186.788571429" xlink:href="#m5be2b32c11" y="266.829989948"/>
     <use style="fill:#0000ff;stroke:#000000;stroke-width:0.5;" x="193.165714286" xlink:href="#m5be2b32c11" y="269.161247857"/>
     <use style="fill:#0000ff;stroke:#000000;stroke-width:0.5;" x="199.542857143" xlink:href="#m5be2b32c11" y="272.660939924"/>
     <use style="fill:#0000ff;stroke:#000000;stroke-width:0.5;" x="205.92" xlink:href="#m5be2b32c11" y="274.843626858"/>
     <use style="fill:#0000ff;stroke:#000000;stroke-width:0.5;" x="212.297142857" xlink:href="#m5be2b32c11" y="282.568552922"/>
     <use style="fill:#0000ff;stroke:#000000;stroke-width:0.5;" x="218.674285714" xlink:href="#m5be2b32c11" y="286.126610235"/>
     <use style="fill:#0000ff;stroke:#000000;stroke-width:0.5;" x="225.051428571" xlink:href="#m5be2b32c11" y="286.958862008"/>
     <use style="fill:#0000ff;stroke:#000000;stroke-width:0.5;" x="231.428571429" xlink:href="#m5be2b32c11" y="290.045866244"/>
     <use style="fill:#0000ff;stroke:#000000;stroke-width:0.5;" x="237.805714286" xlink:href="#m5be2b32c11" y="292.937004723"/>
     <use style="fill:#0000ff;stroke:#000000;stroke-width:0.5;" x="244.182857143" xlink:href="#m5be2b32c11" y="293.780582348"/>
     <use style="fill:#0000ff;stroke:#000000;stroke-width:0.5;" x="250.56" xlink:href="#m5be2b32c11" y="295.921195037"/>
     <use style="fill:#0000ff;stroke:#000000;stroke-width:0.5;" x="256.937142857" xlink:href="#m5be2b32c11" y="297.161569595"/>
     <use style="fill:#0000ff;stroke:#000000;stroke-width:0.5;" x="263.314285714" xlink:href="#m5be2b32c11" y="299.162063122"/>
     <use style="fill:#0000ff;stroke:#000000;stroke-width:0.5;" x="269.691428571" xlink:href="#m5be2b32c11" y="301.316282643"/>
     <use style="fill:#0000ff;stroke:#000000;stroke-width:0.5;" x="276.068571429" xlink:href="#m5be2b32c11" y="322.663944219"/>
     <use style="fill:#0000ff;stroke:#000000;stroke-width:0.5;" x="282.445714286" xlink:href="#m5be2b32c11" y="325.384536556"/>
     <use style="fill:#0000ff;stroke:#000000;stroke-width:0.5;" x="288.822857143" xlink:href="#m5be2b32c11" y="326.305210266"/>
     <use style="fill:#0000ff;stroke:#000000;stroke-width:0.5;" x="295.2" xlink:href="#m5be2b32c11" y="327.935726136"/>
     <use style="fill:#0000ff;stroke:#000000;stroke-width:0.5;" x="301.577142857" xlink:href="#m5be2b32c11" y="328.897899607"/>
     <use style="fill:#0000ff;stroke:#000000;stroke-width:0.5;" x="307.954285714" xlink:href="#m5be2b32c11" y="329.749620364"/>
     <use style="fill:#0000ff;stroke:#000000;stroke-width:0.5;" x="314.331428571" xlink:href="#m5be2b32c11" y="330.550582949"/>
     <use style="fill:#0000ff;stroke:#000000;stroke-width:0.5;" x="320.708571429" xlink:href="#m5be2b32c11" y="332.804120008"/>
     <use style="fill:#0000ff;stroke:#000000;stroke-width:0.5;" x="327.085714286" xlink:href="#m5be2b32c11" y="333.946748828"/>
     <use style="fill:#0000ff;stroke:#000000;stroke-width:0.5;" x="333.462857143" xlink:href="#m5be2b32c11" y="334.579626359"/>
     <use style="fill:#0000ff;stroke:#000000;stroke-width:0.5;" x="339.84" xlink:href="#m5be2b32c11" y="336.034196949"/>
     <use style="fill:#0000ff;stroke:#000000;stroke-width:0.5;" x="346.217142857" xlink:href="#m5be2b32c11" y="336.297175609"/>
     <use style="fill:#0000ff;stroke:#000000;stroke-width:0.5;" x="352.594285714" xlink:href="#m5be2b32c11" y="337.238774795"/>
     <use style="fill:#0000ff;stroke:#000000;stroke-width:0.5;" x="358.971428571" xlink:href="#m5be2b32c11" y="338.603889458"/>
     <use style="fill:#0000ff;stroke:#000000;stroke-width:0.5;" x="365.348571429" xlink:href="#m5be2b32c11" y="388.8"/>
     <use style="fill:#0000ff;stroke:#000000;stroke-width:0.5;" x="371.725714286" xlink:href="#m5be2b32c11" y="340.533276438"/>
     <use style="fill:#0000ff;stroke:#000000;stroke-width:0.5;" x="378.102857143" xlink:href="#m5be2b32c11" y="341.757948532"/>
     <use style="fill:#0000ff;stroke:#000000;stroke-width:0.5;" x="384.48" xlink:href="#m5be2b32c11" y="342.586974152"/>
     <use style="fill:#0000ff;stroke:#000000;stroke-width:0.5;" x="390.857142857" xlink:href="#m5be2b32c11" y="343.418103301"/>
     <use style="fill:#0000ff;stroke:#000000;stroke-width:0.5;" x="397.234285714" xlink:href="#m5be2b32c11" y="344.264776955"/>
     <use style="fill:#0000ff;stroke:#000000;stroke-width:0.5;" x="403.611428571" xlink:href="#m5be2b32c11" y="344.364005663"/>
     <use style="fill:#0000ff;stroke:#000000;stroke-width:0.5;" x="409.988571429" xlink:href="#m5be2b32c11" y="345.717414663"/>
     <use style="fill:#0000ff;stroke:#000000;stroke-width:0.5;" x="416.365714286" xlink:href="#m5be2b32c11" y="346.270699187"/>
     <use style="fill:#0000ff;stroke:#000000;stroke-width:0.5;" x="422.742857143" xlink:href="#m5be2b32c11" y="347.19526963"/>
     <use style="fill:#0000ff;stroke:#000000;stroke-width:0.5;" x="429.12" xlink:href="#m5be2b32c11" y="348.28956089"/>
     <use style="fill:#0000ff;stroke:#000000;stroke-width:0.5;" x="435.497142857" xlink:href="#m5be2b32c11" y="348.668955083"/>
     <use style="fill:#0000ff;stroke:#000000;stroke-width:0.5;" x="441.874285714" xlink:href="#m5be2b32c11" y="349.583800833"/>
     <use style="fill:#0000ff;stroke:#000000;stroke-width:0.5;" x="448.251428571" xlink:href="#m5be2b32c11" y="350.081167802"/>
     <use style="fill:#0000ff;stroke:#000000;stroke-width:0.5;" x="454.628571429" xlink:href="#m5be2b32c11" y="349.921379417"/>
     <use style="fill:#0000ff;stroke:#000000;stroke-width:0.5;" x="461.005714286" xlink:href="#m5be2b32c11" y="350.809089606"/>
     <use style="fill:#0000ff;stroke:#000000;stroke-width:0.5;" x="467.382857143" xlink:href="#m5be2b32c11" y="351.987803619"/>
     <use style="fill:#0000ff;stroke:#000000;stroke-width:0.5;" x="473.76" xlink:href="#m5be2b32c11" y="351.910436908"/>
     <use style="fill:#0000ff;stroke:#000000;stroke-width:0.5;" x="480.137142857" xlink:href="#m5be2b32c11" y="359.028499737"/>
     <use style="fill:#0000ff;stroke:#000000;stroke-width:0.5;" x="486.514285714" xlink:href="#m5be2b32c11" y="359.566973092"/>
     <use style="fill:#0000ff;stroke:#000000;stroke-width:0.5;" x="492.891428571" xlink:href="#m5be2b32c11" y="360.113968272"/>
     <use style="fill:#0000ff;stroke:#000000;stroke-width:0.5;" x="499.268571429" xlink:href="#m5be2b32c11" y="360.403562896"/>
     <use style="fill:#0000ff;stroke:#000000;stroke-width:0.5;" x="505.645714286" xlink:href="#m5be2b32c11" y="361.137148286"/>
    </g>
   </g>
   <g id="line2d_2">
    <defs>
     <path d="M 0 3 
C 0.795609 3 1.55874 2.683901 2.12132 2.12132 
C 2.683901 1.55874 3 0.795609 3 0 
C 3 -0.795609 2.683901 -1.55874 2.12132 -2.12132 
C 1.55874 -2.683901 0.795609 -3 0 -3 
C -0.795609 -3 -1.55874 -2.683901 -2.12132 -2.12132 
C -2.683901 -1.55874 -3 -0.795609 -3 0 
C -3 0.795609 -2.683901 1.55874 -2.12132 2.12132 
C -1.55874 2.683901 -0.795609 3 0 3 
z
" id="m5782f81d0e" style="stroke:#000000;stroke-width:0.5;"/>
    </defs>
    <g clip-path="url(#pa0eb743309)">
     <use style="fill:#008000;stroke:#000000;stroke-width:0.5;" x="78.3771428571" xlink:href="#m5782f81d0e" y="43.2"/>
     <use style="fill:#008000;stroke:#000000;stroke-width:0.5;" x="84.7542857143" xlink:href="#m5782f81d0e" y="76.959803262"/>
     <use style="fill:#008000;stroke:#000000;stroke-width:0.5;" x="91.1314285714" xlink:href="#m5782f81d0e" y="112.398530211"/>
     <use style="fill:#008000;stroke:#000000;stroke-width:0.5;" x="97.5085714286" xlink:href="#m5782f81d0e" y="136.019047082"/>
     <use style="fill:#008000;stroke:#000000;stroke-width:0.5;" x="103.885714286" xlink:href="#m5782f81d0e" y="151.680182586"/>
     <use style="fill:#008000;stroke:#000000;stroke-width:0.5;" x="110.262857143" xlink:href="#m5782f81d0e" y="163.165206115"/>
     <use style="fill:#008000;stroke:#000000;stroke-width:0.5;" x="116.64" xlink:href="#m5782f81d0e" y="175.02598956"/>
     <use style="fill:#008000;stroke:#000000;stroke-width:0.5;" x="123.017142857" xlink:href="#m5782f81d0e" y="196.841130224"/>
     <use style="fill:#008000;stroke:#000000;stroke-width:0.5;" x="129.394285714" xlink:href="#m5782f81d0e" y="200.894614997"/>
     <use style="fill:#008000;stroke:#000000;stroke-width:0.5;" x="135.771428571" xlink:href="#m5782f81d0e" y="208.411586933"/>
     <use style="fill:#008000;stroke:#000000;stroke-width:0.5;" x="142.148571429" xlink:href="#m5782f81d0e" y="221.584617053"/>
     <use style="fill:#008000;stroke:#000000;stroke-width:0.5;" x="148.525714286" xlink:href="#m5782f81d0e" y="225.383303319"/>
     <use style="fill:#008000;stroke:#000000;stroke-width:0.5;" x="154.902857143" xlink:href="#m5782f81d0e" y="233.624785323"/>
     <use style="fill:#008000;stroke:#000000;stroke-width:0.5;" x="161.28" xlink:href="#m5782f81d0e" y="247.258517862"/>
     <use style="fill:#008000;stroke:#000000;stroke-width:0.5;" x="167.657142857" xlink:href="#m5782f81d0e" y="262.064521604"/>
     <use style="fill:#008000;stroke:#000000;stroke-width:0.5;" x="174.034285714" xlink:href="#m5782f81d0e" y="263.822682579"/>
     <use style="fill:#008000;stroke:#000000;stroke-width:0.5;" x="180.411428571" xlink:href="#m5782f81d0e" y="273.927816822"/>
     <use style="fill:#008000;stroke:#000000;stroke-width:0.5;" x="186.788571429" xlink:href="#m5782f81d0e" y="283.449713429"/>
     <use style="fill:#008000;stroke:#000000;stroke-width:0.5;" x="193.165714286" xlink:href="#m5782f81d0e" y="265.970916701"/>
     <use style="fill:#008000;stroke:#000000;stroke-width:0.5;" x="199.542857143" xlink:href="#m5782f81d0e" y="279.960128142"/>
     <use style="fill:#008000;stroke:#000000;stroke-width:0.5;" x="205.92" xlink:href="#m5782f81d0e" y="270.930083881"/>
     <use style="fill:#008000;stroke:#000000;stroke-width:0.5;" x="212.297142857" xlink:href="#m5782f81d0e" y="285.980043956"/>
     <use style="fill:#008000;stroke:#000000;stroke-width:0.5;" x="218.674285714" xlink:href="#m5782f81d0e" y="282.364255283"/>
     <use style="fill:#008000;stroke:#000000;stroke-width:0.5;" x="225.051428571" xlink:href="#m5782f81d0e" y="283.775686081"/>
     <use style="fill:#008000;stroke:#000000;stroke-width:0.5;" x="231.428571429" xlink:href="#m5782f81d0e" y="287.268017846"/>
     <use style="fill:#008000;stroke:#000000;stroke-width:0.5;" x="237.805714286" xlink:href="#m5782f81d0e" y="290.308799681"/>
     <use style="fill:#008000;stroke:#000000;stroke-width:0.5;" x="244.182857143" xlink:href="#m5782f81d0e" y="291.482028663"/>
     <use style="fill:#008000;stroke:#000000;stroke-width:0.5;" x="250.56" xlink:href="#m5782f81d0e" y="293.778125436"/>
     <use style="fill:#008000;stroke:#000000;stroke-width:0.5;" x="256.937142857" xlink:href="#m5782f81d0e" y="295.977587955"/>
     <use style="fill:#008000;stroke:#000000;stroke-width:0.5;" x="263.314285714" xlink:href="#m5782f81d0e" y="298.299115022"/>
     <use style="fill:#008000;stroke:#000000;stroke-width:0.5;" x="269.691428571" xlink:href="#m5782f81d0e" y="299.774850371"/>
     <use style="fill:#008000;stroke:#000000;stroke-width:0.5;" x="276.068571429" xlink:href="#m5782f81d0e" y="325.530097014"/>
     <use style="fill:#008000;stroke:#000000;stroke-width:0.5;" x="282.445714286" xlink:href="#m5782f81d0e" y="325.06748103"/>
     <use style="fill:#008000;stroke:#000000;stroke-width:0.5;" x="288.822857143" xlink:href="#m5782f81d0e" y="325.212278884"/>
     <use style="fill:#008000;stroke:#000000;stroke-width:0.5;" x="295.2" xlink:href="#m5782f81d0e" y="325.606683695"/>
     <use style="fill:#008000;stroke:#000000;stroke-width:0.5;" x="301.577142857" xlink:href="#m5782f81d0e" y="328.261405162"/>
     <use style="fill:#008000;stroke:#000000;stroke-width:0.5;" x="307.954285714" xlink:href="#m5782f81d0e" y="329.235717802"/>
     <use style="fill:#008000;stroke:#000000;stroke-width:0.5;" x="314.331428571" xlink:href="#m5782f81d0e" y="332.698404602"/>
     <use style="fill:#008000;stroke:#000000;stroke-width:0.5;" x="320.708571429" xlink:href="#m5782f81d0e" y="331.281478718"/>
     <use style="fill:#008000;stroke:#000000;stroke-width:0.5;" x="327.085714286" xlink:href="#m5782f81d0e" y="332.382837176"/>
     <use style="fill:#008000;stroke:#000000;stroke-width:0.5;" x="333.462857143" xlink:href="#m5782f81d0e" y="334.109508152"/>
     <use style="fill:#008000;stroke:#000000;stroke-width:0.5;" x="339.84" xlink:href="#m5782f81d0e" y="388.8"/>
     <use style="fill:#008000;stroke:#000000;stroke-width:0.5;" x="346.217142857" xlink:href="#m5782f81d0e" y="335.019828547"/>
     <use style="fill:#008000;stroke:#000000;stroke-width:0.5;" x="352.594285714" xlink:href="#m5782f81d0e" y="336.261595852"/>
     <use style="fill:#008000;stroke:#000000;stroke-width:0.5;" x="358.971428571" xlink:href="#m5782f81d0e" y="337.86655725"/>
     <use style="fill:#008000;stroke:#000000;stroke-width:0.5;" x="371.725714286" xlink:href="#m5782f81d0e" y="339.920896025"/>
     <use style="fill:#008000;stroke:#000000;stroke-width:0.5;" x="378.102857143" xlink:href="#m5782f81d0e" y="340.990282083"/>
     <use style="fill:#008000;stroke:#000000;stroke-width:0.5;" x="384.48" xlink:href="#m5782f81d0e" y="341.872600011"/>
     <use style="fill:#008000;stroke:#000000;stroke-width:0.5;" x="390.857142857" xlink:href="#m5782f81d0e" y="342.204081314"/>
     <use style="fill:#008000;stroke:#000000;stroke-width:0.5;" x="397.234285714" xlink:href="#m5782f81d0e" y="343.875245111"/>
     <use style="fill:#008000;stroke:#000000;stroke-width:0.5;" x="403.611428571" xlink:href="#m5782f81d0e" y="343.869435345"/>
     <use style="fill:#008000;stroke:#000000;stroke-width:0.5;" x="409.988571429" xlink:href="#m5782f81d0e" y="344.622393506"/>
     <use style="fill:#008000;stroke:#000000;stroke-width:0.5;" x="416.365714286" xlink:href="#m5782f81d0e" y="346.096733932"/>
     <use style="fill:#008000;stroke:#000000;stroke-width:0.5;" x="422.742857143" xlink:href="#m5782f81d0e" y="345.970055081"/>
     <use style="fill:#008000;stroke:#000000;stroke-width:0.5;" x="429.12" xlink:href="#m5782f81d0e" y="347.060169645"/>
     <use style="fill:#008000;stroke:#000000;stroke-width:0.5;" x="435.497142857" xlink:href="#m5782f81d0e" y="348.467095389"/>
     <use style="fill:#008000;stroke:#000000;stroke-width:0.5;" x="441.874285714" xlink:href="#m5782f81d0e" y="349.640338136"/>
     <use style="fill:#008000;stroke:#000000;stroke-width:0.5;" x="448.251428571" xlink:href="#m5782f81d0e" y="349.276609596"/>
     <use style="fill:#008000;stroke:#000000;stroke-width:0.5;" x="454.628571429" xlink:href="#m5782f81d0e" y="349.973012116"/>
     <use style="fill:#008000;stroke:#000000;stroke-width:0.5;" x="461.005714286" xlink:href="#m5782f81d0e" y="350.103787267"/>
     <use style="fill:#008000;stroke:#000000;stroke-width:0.5;" x="467.382857143" xlink:href="#m5782f81d0e" y="351.324142447"/>
     <use style="fill:#008000;stroke:#000000;stroke-width:0.5;" x="473.76" xlink:href="#m5782f81d0e" y="351.59197465"/>
     <use style="fill:#008000;stroke:#000000;stroke-width:0.5;" x="480.137142857" xlink:href="#m5782f81d0e" y="358.090063151"/>
     <use style="fill:#008000;stroke:#000000;stroke-width:0.5;" x="486.514285714" xlink:href="#m5782f81d0e" y="360.500559877"/>
     <use style="fill:#008000;stroke:#000000;stroke-width:0.5;" x="492.891428571" xlink:href="#m5782f81d0e" y="359.001740592"/>
     <use style="fill:#008000;stroke:#000000;stroke-width:0.5;" x="499.268571429" xlink:href="#m5782f81d0e" y="359.883472049"/>
     <use style="fill:#008000;stroke:#000000;stroke-width:0.5;" x="505.645714286" xlink:href="#m5782f81d0e" y="360.445501475"/>
    </g>
   </g>
   <g id="patch_3">
    <path d="M 72 43.2 
L 518.4 43.2 
" style="fill:none;stroke:#000000;stroke-linecap:square;stroke-linejoin:miter;"/>
   </g>
   <g id="patch_4">
    <path d="M 518.4 388.8 
L 518.4 43.2 
" style="fill:none;stroke:#000000;stroke-linecap:square;stroke-linejoin:miter;"/>
   </g>
   <g id="patch_5">
    <path d="M 72 388.8 
L 518.4 388.8 
" style="fill:none;stroke:#000000;stroke-linecap:square;stroke-linejoin:miter;"/>
   </g>
   <g id="patch_6">
    <path d="M 72 388.8 
L 72 43.2 
" style="fill:none;stroke:#000000;stroke-linecap:square;stroke-linejoin:miter;"/>
   </g>
   <g id="matplotlib.axis_1">
    <g id="xtick_1">
     <g id="line2d_3">
      <defs>
       <path d="M 0 0 
L 0 -4 
" id="m9018f5cccb" style="stroke:#000000;stroke-width:0.5;"/>
      </defs>
      <g>
       <use style="stroke:#000000;stroke-width:0.5;" x="72.0" xlink:href="#m9018f5cccb" y="388.8"/>
      </g>
     </g>
     <g id="line2d_4">
      <defs>
       <path d="M 0 0 
L 0 4 
" id="mdafa28e31e" style="stroke:#000000;stroke-width:0.5;"/>
      </defs>
      <g>
       <use style="stroke:#000000;stroke-width:0.5;" x="72.0" xlink:href="#mdafa28e31e" y="43.2"/>
      </g>
     </g>
     <g id="text_1">
      <!-- 0 -->
      <defs>
       <path d="M 31.78125 66.40625 
Q 24.171875 66.40625 20.328125 58.90625 
Q 16.5 51.421875 16.5 36.375 
Q 16.5 21.390625 20.328125 13.890625 
Q 24.171875 6.390625 31.78125 6.390625 
Q 39.453125 6.390625 43.28125 13.890625 
Q 47.125 21.390625 47.125 36.375 
Q 47.125 51.421875 43.28125 58.90625 
Q 39.453125 66.40625 31.78125 66.40625 
M 31.78125 74.21875 
Q 44.046875 74.21875 50.515625 64.515625 
Q 56.984375 54.828125 56.984375 36.375 
Q 56.984375 17.96875 50.515625 8.265625 
Q 44.046875 -1.421875 31.78125 -1.421875 
Q 19.53125 -1.421875 13.0625 8.265625 
Q 6.59375 17.96875 6.59375 36.375 
Q 6.59375 54.828125 13.0625 64.515625 
Q 19.53125 74.21875 31.78125 74.21875 
" id="BitstreamVeraSans-Roman-30"/>
      </defs>
      <g transform="translate(68.1825 401.918125)scale(0.12 -0.12)">
       <use xlink:href="#BitstreamVeraSans-Roman-30"/>
      </g>
     </g>
    </g>
    <g id="xtick_2">
     <g id="line2d_5">
      <g>
       <use style="stroke:#000000;stroke-width:0.5;" x="135.771428571" xlink:href="#m9018f5cccb" y="388.8"/>
      </g>
     </g>
     <g id="line2d_6">
      <g>
       <use style="stroke:#000000;stroke-width:0.5;" x="135.771428571" xlink:href="#mdafa28e31e" y="43.2"/>
      </g>
     </g>
     <g id="text_2">
      <!-- 10 -->
      <defs>
       <path d="M 12.40625 8.296875 
L 28.515625 8.296875 
L 28.515625 63.921875 
L 10.984375 60.40625 
L 10.984375 69.390625 
L 28.421875 72.90625 
L 38.28125 72.90625 
L 38.28125 8.296875 
L 54.390625 8.296875 
L 54.390625 0 
L 12.40625 0 
z
" id="BitstreamVeraSans-Roman-31"/>
      </defs>
      <g transform="translate(128.136428571 401.918125)scale(0.12 -0.12)">
       <use xlink:href="#BitstreamVeraSans-Roman-31"/>
       <use x="63.623046875" xlink:href="#BitstreamVeraSans-Roman-30"/>
      </g>
     </g>
    </g>
    <g id="xtick_3">
     <g id="line2d_7">
      <g>
       <use style="stroke:#000000;stroke-width:0.5;" x="199.542857143" xlink:href="#m9018f5cccb" y="388.8"/>
      </g>
     </g>
     <g id="line2d_8">
      <g>
       <use style="stroke:#000000;stroke-width:0.5;" x="199.542857143" xlink:href="#mdafa28e31e" y="43.2"/>
      </g>
     </g>
     <g id="text_3">
      <!-- 20 -->
      <defs>
       <path d="M 19.1875 8.296875 
L 53.609375 8.296875 
L 53.609375 0 
L 7.328125 0 
L 7.328125 8.296875 
Q 12.9375 14.109375 22.625 23.890625 
Q 32.328125 33.6875 34.8125 36.53125 
Q 39.546875 41.84375 41.421875 45.53125 
Q 43.3125 49.21875 43.3125 52.78125 
Q 43.3125 58.59375 39.234375 62.25 
Q 35.15625 65.921875 28.609375 65.921875 
Q 23.96875 65.921875 18.8125 64.3125 
Q 13.671875 62.703125 7.8125 59.421875 
L 7.8125 69.390625 
Q 13.765625 71.78125 18.9375 73 
Q 24.125 74.21875 28.421875 74.21875 
Q 39.75 74.21875 46.484375 68.546875 
Q 53.21875 62.890625 53.21875 53.421875 
Q 53.21875 48.921875 51.53125 44.890625 
Q 49.859375 40.875 45.40625 35.40625 
Q 44.1875 33.984375 37.640625 27.21875 
Q 31.109375 20.453125 19.1875 8.296875 
" id="BitstreamVeraSans-Roman-32"/>
      </defs>
      <g transform="translate(191.907857143 401.918125)scale(0.12 -0.12)">
       <use xlink:href="#BitstreamVeraSans-Roman-32"/>
       <use x="63.623046875" xlink:href="#BitstreamVeraSans-Roman-30"/>
      </g>
     </g>
    </g>
    <g id="xtick_4">
     <g id="line2d_9">
      <g>
       <use style="stroke:#000000;stroke-width:0.5;" x="263.314285714" xlink:href="#m9018f5cccb" y="388.8"/>
      </g>
     </g>
     <g id="line2d_10">
      <g>
       <use style="stroke:#000000;stroke-width:0.5;" x="263.314285714" xlink:href="#mdafa28e31e" y="43.2"/>
      </g>
     </g>
     <g id="text_4">
      <!-- 30 -->
      <defs>
       <path d="M 40.578125 39.3125 
Q 47.65625 37.796875 51.625 33 
Q 55.609375 28.21875 55.609375 21.1875 
Q 55.609375 10.40625 48.1875 4.484375 
Q 40.765625 -1.421875 27.09375 -1.421875 
Q 22.515625 -1.421875 17.65625 -0.515625 
Q 12.796875 0.390625 7.625 2.203125 
L 7.625 11.71875 
Q 11.71875 9.328125 16.59375 8.109375 
Q 21.484375 6.890625 26.8125 6.890625 
Q 36.078125 6.890625 40.9375 10.546875 
Q 45.796875 14.203125 45.796875 21.1875 
Q 45.796875 27.640625 41.28125 31.265625 
Q 36.765625 34.90625 28.71875 34.90625 
L 20.21875 34.90625 
L 20.21875 43.015625 
L 29.109375 43.015625 
Q 36.375 43.015625 40.234375 45.921875 
Q 44.09375 48.828125 44.09375 54.296875 
Q 44.09375 59.90625 40.109375 62.90625 
Q 36.140625 65.921875 28.71875 65.921875 
Q 24.65625 65.921875 20.015625 65.03125 
Q 15.375 64.15625 9.8125 62.3125 
L 9.8125 71.09375 
Q 15.4375 72.65625 20.34375 73.4375 
Q 25.25 74.21875 29.59375 74.21875 
Q 40.828125 74.21875 47.359375 69.109375 
Q 53.90625 64.015625 53.90625 55.328125 
Q 53.90625 49.265625 50.4375 45.09375 
Q 46.96875 40.921875 40.578125 39.3125 
" id="BitstreamVeraSans-Roman-33"/>
      </defs>
      <g transform="translate(255.679285714 401.918125)scale(0.12 -0.12)">
       <use xlink:href="#BitstreamVeraSans-Roman-33"/>
       <use x="63.623046875" xlink:href="#BitstreamVeraSans-Roman-30"/>
      </g>
     </g>
    </g>
    <g id="xtick_5">
     <g id="line2d_11">
      <g>
       <use style="stroke:#000000;stroke-width:0.5;" x="327.085714286" xlink:href="#m9018f5cccb" y="388.8"/>
      </g>
     </g>
     <g id="line2d_12">
      <g>
       <use style="stroke:#000000;stroke-width:0.5;" x="327.085714286" xlink:href="#mdafa28e31e" y="43.2"/>
      </g>
     </g>
     <g id="text_5">
      <!-- 40 -->
      <defs>
       <path d="M 37.796875 64.3125 
L 12.890625 25.390625 
L 37.796875 25.390625 
z
M 35.203125 72.90625 
L 47.609375 72.90625 
L 47.609375 25.390625 
L 58.015625 25.390625 
L 58.015625 17.1875 
L 47.609375 17.1875 
L 47.609375 0 
L 37.796875 0 
L 37.796875 17.1875 
L 4.890625 17.1875 
L 4.890625 26.703125 
z
" id="BitstreamVeraSans-Roman-34"/>
      </defs>
      <g transform="translate(319.450714286 401.918125)scale(0.12 -0.12)">
       <use xlink:href="#BitstreamVeraSans-Roman-34"/>
       <use x="63.623046875" xlink:href="#BitstreamVeraSans-Roman-30"/>
      </g>
     </g>
    </g>
    <g id="xtick_6">
     <g id="line2d_13">
      <g>
       <use style="stroke:#000000;stroke-width:0.5;" x="390.857142857" xlink:href="#m9018f5cccb" y="388.8"/>
      </g>
     </g>
     <g id="line2d_14">
      <g>
       <use style="stroke:#000000;stroke-width:0.5;" x="390.857142857" xlink:href="#mdafa28e31e" y="43.2"/>
      </g>
     </g>
     <g id="text_6">
      <!-- 50 -->
      <defs>
       <path d="M 10.796875 72.90625 
L 49.515625 72.90625 
L 49.515625 64.59375 
L 19.828125 64.59375 
L 19.828125 46.734375 
Q 21.96875 47.46875 24.109375 47.828125 
Q 26.265625 48.1875 28.421875 48.1875 
Q 40.625 48.1875 47.75 41.5 
Q 54.890625 34.8125 54.890625 23.390625 
Q 54.890625 11.625 47.5625 5.09375 
Q 40.234375 -1.421875 26.90625 -1.421875 
Q 22.3125 -1.421875 17.546875 -0.640625 
Q 12.796875 0.140625 7.71875 1.703125 
L 7.71875 11.625 
Q 12.109375 9.234375 16.796875 8.0625 
Q 21.484375 6.890625 26.703125 6.890625 
Q 35.15625 6.890625 40.078125 11.328125 
Q 45.015625 15.765625 45.015625 23.390625 
Q 45.015625 31 40.078125 35.4375 
Q 35.15625 39.890625 26.703125 39.890625 
Q 22.75 39.890625 18.8125 39.015625 
Q 14.890625 38.140625 10.796875 36.28125 
z
" id="BitstreamVeraSans-Roman-35"/>
      </defs>
      <g transform="translate(383.222142857 401.918125)scale(0.12 -0.12)">
       <use xlink:href="#BitstreamVeraSans-Roman-35"/>
       <use x="63.623046875" xlink:href="#BitstreamVeraSans-Roman-30"/>
      </g>
     </g>
    </g>
    <g id="xtick_7">
     <g id="line2d_15">
      <g>
       <use style="stroke:#000000;stroke-width:0.5;" x="454.628571429" xlink:href="#m9018f5cccb" y="388.8"/>
      </g>
     </g>
     <g id="line2d_16">
      <g>
       <use style="stroke:#000000;stroke-width:0.5;" x="454.628571429" xlink:href="#mdafa28e31e" y="43.2"/>
      </g>
     </g>
     <g id="text_7">
      <!-- 60 -->
      <defs>
       <path d="M 33.015625 40.375 
Q 26.375 40.375 22.484375 35.828125 
Q 18.609375 31.296875 18.609375 23.390625 
Q 18.609375 15.53125 22.484375 10.953125 
Q 26.375 6.390625 33.015625 6.390625 
Q 39.65625 6.390625 43.53125 10.953125 
Q 47.40625 15.53125 47.40625 23.390625 
Q 47.40625 31.296875 43.53125 35.828125 
Q 39.65625 40.375 33.015625 40.375 
M 52.59375 71.296875 
L 52.59375 62.3125 
Q 48.875 64.0625 45.09375 64.984375 
Q 41.3125 65.921875 37.59375 65.921875 
Q 27.828125 65.921875 22.671875 59.328125 
Q 17.53125 52.734375 16.796875 39.40625 
Q 19.671875 43.65625 24.015625 45.921875 
Q 28.375 48.1875 33.59375 48.1875 
Q 44.578125 48.1875 50.953125 41.515625 
Q 57.328125 34.859375 57.328125 23.390625 
Q 57.328125 12.15625 50.6875 5.359375 
Q 44.046875 -1.421875 33.015625 -1.421875 
Q 20.359375 -1.421875 13.671875 8.265625 
Q 6.984375 17.96875 6.984375 36.375 
Q 6.984375 53.65625 15.1875 63.9375 
Q 23.390625 74.21875 37.203125 74.21875 
Q 40.921875 74.21875 44.703125 73.484375 
Q 48.484375 72.75 52.59375 71.296875 
" id="BitstreamVeraSans-Roman-36"/>
      </defs>
      <g transform="translate(446.993571429 401.918125)scale(0.12 -0.12)">
       <use xlink:href="#BitstreamVeraSans-Roman-36"/>
       <use x="63.623046875" xlink:href="#BitstreamVeraSans-Roman-30"/>
      </g>
     </g>
    </g>
    <g id="xtick_8">
     <g id="line2d_17">
      <g>
       <use style="stroke:#000000;stroke-width:0.5;" x="518.4" xlink:href="#m9018f5cccb" y="388.8"/>
      </g>
     </g>
     <g id="line2d_18">
      <g>
       <use style="stroke:#000000;stroke-width:0.5;" x="518.4" xlink:href="#mdafa28e31e" y="43.2"/>
      </g>
     </g>
     <g id="text_8">
      <!-- 70 -->
      <defs>
       <path d="M 8.203125 72.90625 
L 55.078125 72.90625 
L 55.078125 68.703125 
L 28.609375 0 
L 18.3125 0 
L 43.21875 64.59375 
L 8.203125 64.59375 
z
" id="BitstreamVeraSans-Roman-37"/>
      </defs>
      <g transform="translate(510.765 401.918125)scale(0.12 -0.12)">
       <use xlink:href="#BitstreamVeraSans-Roman-37"/>
       <use x="63.623046875" xlink:href="#BitstreamVeraSans-Roman-30"/>
      </g>
     </g>
    </g>
    <g id="text_9">
     <!-- threads -->
     <defs>
      <path d="M 41.109375 46.296875 
Q 39.59375 47.171875 37.8125 47.578125 
Q 36.03125 48 33.890625 48 
Q 26.265625 48 22.1875 43.046875 
Q 18.109375 38.09375 18.109375 28.8125 
L 18.109375 0 
L 9.078125 0 
L 9.078125 54.6875 
L 18.109375 54.6875 
L 18.109375 46.1875 
Q 20.953125 51.171875 25.484375 53.578125 
Q 30.03125 56 36.53125 56 
Q 37.453125 56 38.578125 55.875 
Q 39.703125 55.765625 41.0625 55.515625 
z
" id="BitstreamVeraSans-Roman-72"/>
      <path d="M 54.890625 33.015625 
L 54.890625 0 
L 45.90625 0 
L 45.90625 32.71875 
Q 45.90625 40.484375 42.875 44.328125 
Q 39.84375 48.1875 33.796875 48.1875 
Q 26.515625 48.1875 22.3125 43.546875 
Q 18.109375 38.921875 18.109375 30.90625 
L 18.109375 0 
L 9.078125 0 
L 9.078125 75.984375 
L 18.109375 75.984375 
L 18.109375 46.1875 
Q 21.34375 51.125 25.703125 53.5625 
Q 30.078125 56 35.796875 56 
Q 45.21875 56 50.046875 50.171875 
Q 54.890625 44.34375 54.890625 33.015625 
" id="BitstreamVeraSans-Roman-68"/>
      <path d="M 56.203125 29.59375 
L 56.203125 25.203125 
L 14.890625 25.203125 
Q 15.484375 15.921875 20.484375 11.0625 
Q 25.484375 6.203125 34.421875 6.203125 
Q 39.59375 6.203125 44.453125 7.46875 
Q 49.3125 8.734375 54.109375 11.28125 
L 54.109375 2.78125 
Q 49.265625 0.734375 44.1875 -0.34375 
Q 39.109375 -1.421875 33.890625 -1.421875 
Q 20.796875 -1.421875 13.15625 6.1875 
Q 5.515625 13.8125 5.515625 26.8125 
Q 5.515625 40.234375 12.765625 48.109375 
Q 20.015625 56 32.328125 56 
Q 43.359375 56 49.78125 48.890625 
Q 56.203125 41.796875 56.203125 29.59375 
M 47.21875 32.234375 
Q 47.125 39.59375 43.09375 43.984375 
Q 39.0625 48.390625 32.421875 48.390625 
Q 24.90625 48.390625 20.390625 44.140625 
Q 15.875 39.890625 15.1875 32.171875 
z
" id="BitstreamVeraSans-Roman-65"/>
      <path d="M 45.40625 46.390625 
L 45.40625 75.984375 
L 54.390625 75.984375 
L 54.390625 0 
L 45.40625 0 
L 45.40625 8.203125 
Q 42.578125 3.328125 38.25 0.953125 
Q 33.9375 -1.421875 27.875 -1.421875 
Q 17.96875 -1.421875 11.734375 6.484375 
Q 5.515625 14.40625 5.515625 27.296875 
Q 5.515625 40.1875 11.734375 48.09375 
Q 17.96875 56 27.875 56 
Q 33.9375 56 38.25 53.625 
Q 42.578125 51.265625 45.40625 46.390625 
M 14.796875 27.296875 
Q 14.796875 17.390625 18.875 11.75 
Q 22.953125 6.109375 30.078125 6.109375 
Q 37.203125 6.109375 41.296875 11.75 
Q 45.40625 17.390625 45.40625 27.296875 
Q 45.40625 37.203125 41.296875 42.84375 
Q 37.203125 48.484375 30.078125 48.484375 
Q 22.953125 48.484375 18.875 42.84375 
Q 14.796875 37.203125 14.796875 27.296875 
" id="BitstreamVeraSans-Roman-64"/>
      <path d="M 18.3125 70.21875 
L 18.3125 54.6875 
L 36.8125 54.6875 
L 36.8125 47.703125 
L 18.3125 47.703125 
L 18.3125 18.015625 
Q 18.3125 11.328125 20.140625 9.421875 
Q 21.96875 7.515625 27.59375 7.515625 
L 36.8125 7.515625 
L 36.8125 0 
L 27.59375 0 
Q 17.1875 0 13.234375 3.875 
Q 9.28125 7.765625 9.28125 18.015625 
L 9.28125 47.703125 
L 2.6875 47.703125 
L 2.6875 54.6875 
L 9.28125 54.6875 
L 9.28125 70.21875 
z
" id="BitstreamVeraSans-Roman-74"/>
      <path d="M 34.28125 27.484375 
Q 23.390625 27.484375 19.1875 25 
Q 14.984375 22.515625 14.984375 16.5 
Q 14.984375 11.71875 18.140625 8.90625 
Q 21.296875 6.109375 26.703125 6.109375 
Q 34.1875 6.109375 38.703125 11.40625 
Q 43.21875 16.703125 43.21875 25.484375 
L 43.21875 27.484375 
z
M 52.203125 31.203125 
L 52.203125 0 
L 43.21875 0 
L 43.21875 8.296875 
Q 40.140625 3.328125 35.546875 0.953125 
Q 30.953125 -1.421875 24.3125 -1.421875 
Q 15.921875 -1.421875 10.953125 3.296875 
Q 6 8.015625 6 15.921875 
Q 6 25.140625 12.171875 29.828125 
Q 18.359375 34.515625 30.609375 34.515625 
L 43.21875 34.515625 
L 43.21875 35.40625 
Q 43.21875 41.609375 39.140625 45 
Q 35.0625 48.390625 27.6875 48.390625 
Q 23 48.390625 18.546875 47.265625 
Q 14.109375 46.140625 10.015625 43.890625 
L 10.015625 52.203125 
Q 14.9375 54.109375 19.578125 55.046875 
Q 24.21875 56 28.609375 56 
Q 40.484375 56 46.34375 49.84375 
Q 52.203125 43.703125 52.203125 31.203125 
" id="BitstreamVeraSans-Roman-61"/>
      <path d="M 44.28125 53.078125 
L 44.28125 44.578125 
Q 40.484375 46.53125 36.375 47.5 
Q 32.28125 48.484375 27.875 48.484375 
Q 21.1875 48.484375 17.84375 46.4375 
Q 14.5 44.390625 14.5 40.28125 
Q 14.5 37.15625 16.890625 35.375 
Q 19.28125 33.59375 26.515625 31.984375 
L 29.59375 31.296875 
Q 39.15625 29.25 43.1875 25.515625 
Q 47.21875 21.78125 47.21875 15.09375 
Q 47.21875 7.46875 41.1875 3.015625 
Q 35.15625 -1.421875 24.609375 -1.421875 
Q 20.21875 -1.421875 15.453125 -0.5625 
Q 10.6875 0.296875 5.421875 2 
L 5.421875 11.28125 
Q 10.40625 8.6875 15.234375 7.390625 
Q 20.0625 6.109375 24.8125 6.109375 
Q 31.15625 6.109375 34.5625 8.28125 
Q 37.984375 10.453125 37.984375 14.40625 
Q 37.984375 18.0625 35.515625 20.015625 
Q 33.0625 21.96875 24.703125 23.78125 
L 21.578125 24.515625 
Q 13.234375 26.265625 9.515625 29.90625 
Q 5.8125 33.546875 5.8125 39.890625 
Q 5.8125 47.609375 11.28125 51.796875 
Q 16.75 56 26.8125 56 
Q 31.78125 56 36.171875 55.265625 
Q 40.578125 54.546875 44.28125 53.078125 
" id="BitstreamVeraSans-Roman-73"/>
     </defs>
     <g transform="translate(272.2771875 418.531875)scale(0.12 -0.12)">
      <use xlink:href="#BitstreamVeraSans-Roman-74"/>
      <use x="39.208984375" xlink:href="#BitstreamVeraSans-Roman-68"/>
      <use x="102.587890625" xlink:href="#BitstreamVeraSans-Roman-72"/>
      <use x="143.669921875" xlink:href="#BitstreamVeraSans-Roman-65"/>
      <use x="205.193359375" xlink:href="#BitstreamVeraSans-Roman-61"/>
      <use x="266.47265625" xlink:href="#BitstreamVeraSans-Roman-64"/>
      <use x="329.94921875" xlink:href="#BitstreamVeraSans-Roman-73"/>
     </g>
    </g>
   </g>
   <g id="matplotlib.axis_2">
    <g id="ytick_1">
     <g id="line2d_19">
      <defs>
       <path d="M 0 0 
L 4 0 
" id="m73fbcd4a5f" style="stroke:#000000;stroke-width:0.5;"/>
      </defs>
      <g>
       <use style="stroke:#000000;stroke-width:0.5;" x="72.0" xlink:href="#m73fbcd4a5f" y="388.8"/>
      </g>
     </g>
     <g id="line2d_20">
      <defs>
       <path d="M 0 0 
L -4 0 
" id="meef7064daf" style="stroke:#000000;stroke-width:0.5;"/>
      </defs>
      <g>
       <use style="stroke:#000000;stroke-width:0.5;" x="518.4" xlink:href="#meef7064daf" y="388.8"/>
      </g>
     </g>
     <g id="text_10">
      <!-- 0.0 -->
      <defs>
       <path d="M 10.6875 12.40625 
L 21 12.40625 
L 21 0 
L 10.6875 0 
z
" id="BitstreamVeraSans-Roman-2e"/>
      </defs>
      <g transform="translate(48.91625 392.11125)scale(0.12 -0.12)">
       <use xlink:href="#BitstreamVeraSans-Roman-30"/>
       <use x="63.623046875" xlink:href="#BitstreamVeraSans-Roman-2e"/>
       <use x="95.41015625" xlink:href="#BitstreamVeraSans-Roman-30"/>
      </g>
     </g>
    </g>
    <g id="ytick_2">
     <g id="line2d_21">
      <g>
       <use style="stroke:#000000;stroke-width:0.5;" x="72.0" xlink:href="#m73fbcd4a5f" y="319.68"/>
      </g>
     </g>
     <g id="line2d_22">
      <g>
       <use style="stroke:#000000;stroke-width:0.5;" x="518.4" xlink:href="#meef7064daf" y="319.68"/>
      </g>
     </g>
     <g id="text_11">
      <!-- 0.2 -->
      <g transform="translate(48.91625 322.99125)scale(0.12 -0.12)">
       <use xlink:href="#BitstreamVeraSans-Roman-30"/>
       <use x="63.623046875" xlink:href="#BitstreamVeraSans-Roman-2e"/>
       <use x="95.41015625" xlink:href="#BitstreamVeraSans-Roman-32"/>
      </g>
     </g>
    </g>
    <g id="ytick_3">
     <g id="line2d_23">
      <g>
       <use style="stroke:#000000;stroke-width:0.5;" x="72.0" xlink:href="#m73fbcd4a5f" y="250.56"/>
      </g>
     </g>
     <g id="line2d_24">
      <g>
       <use style="stroke:#000000;stroke-width:0.5;" x="518.4" xlink:href="#meef7064daf" y="250.56"/>
      </g>
     </g>
     <g id="text_12">
      <!-- 0.4 -->
      <g transform="translate(48.91625 253.87125)scale(0.12 -0.12)">
       <use xlink:href="#BitstreamVeraSans-Roman-30"/>
       <use x="63.623046875" xlink:href="#BitstreamVeraSans-Roman-2e"/>
       <use x="95.41015625" xlink:href="#BitstreamVeraSans-Roman-34"/>
      </g>
     </g>
    </g>
    <g id="ytick_4">
     <g id="line2d_25">
      <g>
       <use style="stroke:#000000;stroke-width:0.5;" x="72.0" xlink:href="#m73fbcd4a5f" y="181.44"/>
      </g>
     </g>
     <g id="line2d_26">
      <g>
       <use style="stroke:#000000;stroke-width:0.5;" x="518.4" xlink:href="#meef7064daf" y="181.44"/>
      </g>
     </g>
     <g id="text_13">
      <!-- 0.6 -->
      <g transform="translate(48.91625 184.75125)scale(0.12 -0.12)">
       <use xlink:href="#BitstreamVeraSans-Roman-30"/>
       <use x="63.623046875" xlink:href="#BitstreamVeraSans-Roman-2e"/>
       <use x="95.41015625" xlink:href="#BitstreamVeraSans-Roman-36"/>
      </g>
     </g>
    </g>
    <g id="ytick_5">
     <g id="line2d_27">
      <g>
       <use style="stroke:#000000;stroke-width:0.5;" x="72.0" xlink:href="#m73fbcd4a5f" y="112.32"/>
      </g>
     </g>
     <g id="line2d_28">
      <g>
       <use style="stroke:#000000;stroke-width:0.5;" x="518.4" xlink:href="#meef7064daf" y="112.32"/>
      </g>
     </g>
     <g id="text_14">
      <!-- 0.8 -->
      <defs>
       <path d="M 31.78125 34.625 
Q 24.75 34.625 20.71875 30.859375 
Q 16.703125 27.09375 16.703125 20.515625 
Q 16.703125 13.921875 20.71875 10.15625 
Q 24.75 6.390625 31.78125 6.390625 
Q 38.8125 6.390625 42.859375 10.171875 
Q 46.921875 13.96875 46.921875 20.515625 
Q 46.921875 27.09375 42.890625 30.859375 
Q 38.875 34.625 31.78125 34.625 
M 21.921875 38.8125 
Q 15.578125 40.375 12.03125 44.71875 
Q 8.5 49.078125 8.5 55.328125 
Q 8.5 64.0625 14.71875 69.140625 
Q 20.953125 74.21875 31.78125 74.21875 
Q 42.671875 74.21875 48.875 69.140625 
Q 55.078125 64.0625 55.078125 55.328125 
Q 55.078125 49.078125 51.53125 44.71875 
Q 48 40.375 41.703125 38.8125 
Q 48.828125 37.15625 52.796875 32.3125 
Q 56.78125 27.484375 56.78125 20.515625 
Q 56.78125 9.90625 50.3125 4.234375 
Q 43.84375 -1.421875 31.78125 -1.421875 
Q 19.734375 -1.421875 13.25 4.234375 
Q 6.78125 9.90625 6.78125 20.515625 
Q 6.78125 27.484375 10.78125 32.3125 
Q 14.796875 37.15625 21.921875 38.8125 
M 18.3125 54.390625 
Q 18.3125 48.734375 21.84375 45.5625 
Q 25.390625 42.390625 31.78125 42.390625 
Q 38.140625 42.390625 41.71875 45.5625 
Q 45.3125 48.734375 45.3125 54.390625 
Q 45.3125 60.0625 41.71875 63.234375 
Q 38.140625 66.40625 31.78125 66.40625 
Q 25.390625 66.40625 21.84375 63.234375 
Q 18.3125 60.0625 18.3125 54.390625 
" id="BitstreamVeraSans-Roman-38"/>
      </defs>
      <g transform="translate(48.91625 115.63125)scale(0.12 -0.12)">
       <use xlink:href="#BitstreamVeraSans-Roman-30"/>
       <use x="63.623046875" xlink:href="#BitstreamVeraSans-Roman-2e"/>
       <use x="95.41015625" xlink:href="#BitstreamVeraSans-Roman-38"/>
      </g>
     </g>
    </g>
    <g id="ytick_6">
     <g id="line2d_29">
      <g>
       <use style="stroke:#000000;stroke-width:0.5;" x="72.0" xlink:href="#m73fbcd4a5f" y="43.2"/>
      </g>
     </g>
     <g id="line2d_30">
      <g>
       <use style="stroke:#000000;stroke-width:0.5;" x="518.4" xlink:href="#meef7064daf" y="43.2"/>
      </g>
     </g>
     <g id="text_15">
      <!-- 1.0 -->
      <g transform="translate(48.91625 46.51125)scale(0.12 -0.12)">
       <use xlink:href="#BitstreamVeraSans-Roman-31"/>
       <use x="63.623046875" xlink:href="#BitstreamVeraSans-Roman-2e"/>
       <use x="95.41015625" xlink:href="#BitstreamVeraSans-Roman-30"/>
      </g>
     </g>
    </g>
    <g id="text_16">
     <!-- parallel efficiency -->
     <defs>
      <path id="BitstreamVeraSans-Roman-20"/>
      <path d="M 54.890625 33.015625 
L 54.890625 0 
L 45.90625 0 
L 45.90625 32.71875 
Q 45.90625 40.484375 42.875 44.328125 
Q 39.84375 48.1875 33.796875 48.1875 
Q 26.515625 48.1875 22.3125 43.546875 
Q 18.109375 38.921875 18.109375 30.90625 
L 18.109375 0 
L 9.078125 0 
L 9.078125 54.6875 
L 18.109375 54.6875 
L 18.109375 46.1875 
Q 21.34375 51.125 25.703125 53.5625 
Q 30.078125 56 35.796875 56 
Q 45.21875 56 50.046875 50.171875 
Q 54.890625 44.34375 54.890625 33.015625 
" id="BitstreamVeraSans-Roman-6e"/>
      <path d="M 9.421875 75.984375 
L 18.40625 75.984375 
L 18.40625 0 
L 9.421875 0 
z
" id="BitstreamVeraSans-Roman-6c"/>
      <path d="M 9.421875 54.6875 
L 18.40625 54.6875 
L 18.40625 0 
L 9.421875 0 
z
M 9.421875 75.984375 
L 18.40625 75.984375 
L 18.40625 64.59375 
L 9.421875 64.59375 
z
" id="BitstreamVeraSans-Roman-69"/>
      <path d="M 18.109375 8.203125 
L 18.109375 -20.796875 
L 9.078125 -20.796875 
L 9.078125 54.6875 
L 18.109375 54.6875 
L 18.109375 46.390625 
Q 20.953125 51.265625 25.265625 53.625 
Q 29.59375 56 35.59375 56 
Q 45.5625 56 51.78125 48.09375 
Q 58.015625 40.1875 58.015625 27.296875 
Q 58.015625 14.40625 51.78125 6.484375 
Q 45.5625 -1.421875 35.59375 -1.421875 
Q 29.59375 -1.421875 25.265625 0.953125 
Q 20.953125 3.328125 18.109375 8.203125 
M 48.6875 27.296875 
Q 48.6875 37.203125 44.609375 42.84375 
Q 40.53125 48.484375 33.40625 48.484375 
Q 26.265625 48.484375 22.1875 42.84375 
Q 18.109375 37.203125 18.109375 27.296875 
Q 18.109375 17.390625 22.1875 11.75 
Q 26.265625 6.109375 33.40625 6.109375 
Q 40.53125 6.109375 44.609375 11.75 
Q 48.6875 17.390625 48.6875 27.296875 
" id="BitstreamVeraSans-Roman-70"/>
      <path d="M 32.171875 -5.078125 
Q 28.375 -14.84375 24.75 -17.8125 
Q 21.140625 -20.796875 15.09375 -20.796875 
L 7.90625 -20.796875 
L 7.90625 -13.28125 
L 13.1875 -13.28125 
Q 16.890625 -13.28125 18.9375 -11.515625 
Q 21 -9.765625 23.484375 -3.21875 
L 25.09375 0.875 
L 2.984375 54.6875 
L 12.5 54.6875 
L 29.59375 11.921875 
L 46.6875 54.6875 
L 56.203125 54.6875 
z
" id="BitstreamVeraSans-Roman-79"/>
      <path d="M 37.109375 75.984375 
L 37.109375 68.5 
L 28.515625 68.5 
Q 23.6875 68.5 21.796875 66.546875 
Q 19.921875 64.59375 19.921875 59.515625 
L 19.921875 54.6875 
L 34.71875 54.6875 
L 34.71875 47.703125 
L 19.921875 47.703125 
L 19.921875 0 
L 10.890625 0 
L 10.890625 47.703125 
L 2.296875 47.703125 
L 2.296875 54.6875 
L 10.890625 54.6875 
L 10.890625 58.5 
Q 10.890625 67.625 15.140625 71.796875 
Q 19.390625 75.984375 28.609375 75.984375 
z
" id="BitstreamVeraSans-Roman-66"/>
      <path d="M 48.78125 52.59375 
L 48.78125 44.1875 
Q 44.96875 46.296875 41.140625 47.34375 
Q 37.3125 48.390625 33.40625 48.390625 
Q 24.65625 48.390625 19.8125 42.84375 
Q 14.984375 37.3125 14.984375 27.296875 
Q 14.984375 17.28125 19.8125 11.734375 
Q 24.65625 6.203125 33.40625 6.203125 
Q 37.3125 6.203125 41.140625 7.25 
Q 44.96875 8.296875 48.78125 10.40625 
L 48.78125 2.09375 
Q 45.015625 0.34375 40.984375 -0.53125 
Q 36.96875 -1.421875 32.421875 -1.421875 
Q 20.0625 -1.421875 12.78125 6.34375 
Q 5.515625 14.109375 5.515625 27.296875 
Q 5.515625 40.671875 12.859375 48.328125 
Q 20.21875 56 33.015625 56 
Q 37.15625 56 41.109375 55.140625 
Q 45.0625 54.296875 48.78125 52.59375 
" id="BitstreamVeraSans-Roman-63"/>
     </defs>
     <g transform="translate(41.420625 269.1225)rotate(-90.0)scale(0.12 -0.12)">
      <use xlink:href="#BitstreamVeraSans-Roman-70"/>
      <use x="63.4765625" xlink:href="#BitstreamVeraSans-Roman-61"/>
      <use x="124.755859375" xlink:href="#BitstreamVeraSans-Roman-72"/>
      <use x="165.869140625" xlink:href="#BitstreamVeraSans-Roman-61"/>
      <use x="227.1484375" xlink:href="#BitstreamVeraSans-Roman-6c"/>
      <use x="254.931640625" xlink:href="#BitstreamVeraSans-Roman-6c"/>
      <use x="282.71484375" xlink:href="#BitstreamVeraSans-Roman-65"/>
      <use x="344.23828125" xlink:href="#BitstreamVeraSans-Roman-6c"/>
      <use x="372.021484375" xlink:href="#BitstreamVeraSans-Roman-20"/>
      <use x="403.80859375" xlink:href="#BitstreamVeraSans-Roman-65"/>
      <use x="465.33203125" xlink:href="#BitstreamVeraSans-Roman-66"/>
      <use x="500.537109375" xlink:href="#BitstreamVeraSans-Roman-66"/>
      <use x="535.7421875" xlink:href="#BitstreamVeraSans-Roman-69"/>
      <use x="563.525390625" xlink:href="#BitstreamVeraSans-Roman-63"/>
      <use x="618.505859375" xlink:href="#BitstreamVeraSans-Roman-69"/>
      <use x="646.2890625" xlink:href="#BitstreamVeraSans-Roman-65"/>
      <use x="707.8125" xlink:href="#BitstreamVeraSans-Roman-6e"/>
      <use x="771.19140625" xlink:href="#BitstreamVeraSans-Roman-63"/>
      <use x="826.171875" xlink:href="#BitstreamVeraSans-Roman-79"/>
     </g>
    </g>
   </g>
   <g id="legend_1">
    <g id="patch_7">
     <path d="M 328.89375 96.993 
L 511.2 96.993 
L 511.2 50.4 
L 328.89375 50.4 
z
" style="fill:#ffffff;stroke:#000000;stroke-linejoin:miter;"/>
    </g>
    <g id="line2d_31"/>
    <g id="line2d_32">
     <g>
      <use style="fill:#0000ff;stroke:#000000;stroke-width:0.5;" x="338.97375" xlink:href="#m5be2b32c11" y="62.06175"/>
      <use style="fill:#0000ff;stroke:#000000;stroke-width:0.5;" x="359.13375" xlink:href="#m5be2b32c11" y="62.06175"/>
     </g>
    </g>
    <g id="text_17">
     <!-- MCDRAM, level=4 -->
     <defs>
      <path d="M 9.8125 72.90625 
L 24.515625 72.90625 
L 43.109375 23.296875 
L 61.8125 72.90625 
L 76.515625 72.90625 
L 76.515625 0 
L 66.890625 0 
L 66.890625 64.015625 
L 48.09375 14.015625 
L 38.1875 14.015625 
L 19.390625 64.015625 
L 19.390625 0 
L 9.8125 0 
z
" id="BitstreamVeraSans-Roman-4d"/>
      <path d="M 10.59375 45.40625 
L 73.1875 45.40625 
L 73.1875 37.203125 
L 10.59375 37.203125 
z
M 10.59375 25.484375 
L 73.1875 25.484375 
L 73.1875 17.1875 
L 10.59375 17.1875 
z
" id="BitstreamVeraSans-Roman-3d"/>
      <path d="M 11.71875 12.40625 
L 22.015625 12.40625 
L 22.015625 4 
L 14.015625 -11.625 
L 7.71875 -11.625 
L 11.71875 4 
z
" id="BitstreamVeraSans-Roman-2c"/>
      <path d="M 44.390625 34.1875 
Q 47.5625 33.109375 50.5625 29.59375 
Q 53.5625 26.078125 56.59375 19.921875 
L 66.609375 0 
L 56 0 
L 46.6875 18.703125 
Q 43.0625 26.03125 39.671875 28.421875 
Q 36.28125 30.8125 30.421875 30.8125 
L 19.671875 30.8125 
L 19.671875 0 
L 9.8125 0 
L 9.8125 72.90625 
L 32.078125 72.90625 
Q 44.578125 72.90625 50.734375 67.671875 
Q 56.890625 62.453125 56.890625 51.90625 
Q 56.890625 45.015625 53.6875 40.46875 
Q 50.484375 35.9375 44.390625 34.1875 
M 19.671875 64.796875 
L 19.671875 38.921875 
L 32.078125 38.921875 
Q 39.203125 38.921875 42.84375 42.21875 
Q 46.484375 45.515625 46.484375 51.90625 
Q 46.484375 58.296875 42.84375 61.546875 
Q 39.203125 64.796875 32.078125 64.796875 
z
" id="BitstreamVeraSans-Roman-52"/>
      <path d="M 19.671875 64.796875 
L 19.671875 8.109375 
L 31.59375 8.109375 
Q 46.6875 8.109375 53.6875 14.9375 
Q 60.6875 21.78125 60.6875 36.53125 
Q 60.6875 51.171875 53.6875 57.984375 
Q 46.6875 64.796875 31.59375 64.796875 
z
M 9.8125 72.90625 
L 30.078125 72.90625 
Q 51.265625 72.90625 61.171875 64.09375 
Q 71.09375 55.28125 71.09375 36.53125 
Q 71.09375 17.671875 61.125 8.828125 
Q 51.171875 0 30.078125 0 
L 9.8125 0 
z
" id="BitstreamVeraSans-Roman-44"/>
      <path d="M 64.40625 67.28125 
L 64.40625 56.890625 
Q 59.421875 61.53125 53.78125 63.8125 
Q 48.140625 66.109375 41.796875 66.109375 
Q 29.296875 66.109375 22.65625 58.46875 
Q 16.015625 50.828125 16.015625 36.375 
Q 16.015625 21.96875 22.65625 14.328125 
Q 29.296875 6.6875 41.796875 6.6875 
Q 48.140625 6.6875 53.78125 8.984375 
Q 59.421875 11.28125 64.40625 15.921875 
L 64.40625 5.609375 
Q 59.234375 2.09375 53.4375 0.328125 
Q 47.65625 -1.421875 41.21875 -1.421875 
Q 24.65625 -1.421875 15.125 8.703125 
Q 5.609375 18.84375 5.609375 36.375 
Q 5.609375 53.953125 15.125 64.078125 
Q 24.65625 74.21875 41.21875 74.21875 
Q 47.75 74.21875 53.53125 72.484375 
Q 59.328125 70.75 64.40625 67.28125 
" id="BitstreamVeraSans-Roman-43"/>
      <path d="M 34.1875 63.1875 
L 20.796875 26.90625 
L 47.609375 26.90625 
z
M 28.609375 72.90625 
L 39.796875 72.90625 
L 67.578125 0 
L 57.328125 0 
L 50.6875 18.703125 
L 17.828125 18.703125 
L 11.1875 0 
L 0.78125 0 
z
" id="BitstreamVeraSans-Roman-41"/>
      <path d="M 2.984375 54.6875 
L 12.5 54.6875 
L 29.59375 8.796875 
L 46.6875 54.6875 
L 56.203125 54.6875 
L 35.6875 0 
L 23.484375 0 
z
" id="BitstreamVeraSans-Roman-76"/>
     </defs>
     <g transform="translate(374.97375 67.10175)scale(0.144 -0.144)">
      <use xlink:href="#BitstreamVeraSans-Roman-4d"/>
      <use x="86.279296875" xlink:href="#BitstreamVeraSans-Roman-43"/>
      <use x="156.103515625" xlink:href="#BitstreamVeraSans-Roman-44"/>
      <use x="233.10546875" xlink:href="#BitstreamVeraSans-Roman-52"/>
      <use x="302.525390625" xlink:href="#BitstreamVeraSans-Roman-41"/>
      <use x="370.93359375" xlink:href="#BitstreamVeraSans-Roman-4d"/>
      <use x="457.212890625" xlink:href="#BitstreamVeraSans-Roman-2c"/>
      <use x="489.0" xlink:href="#BitstreamVeraSans-Roman-20"/>
      <use x="520.787109375" xlink:href="#BitstreamVeraSans-Roman-6c"/>
      <use x="548.5703125" xlink:href="#BitstreamVeraSans-Roman-65"/>
      <use x="610.09375" xlink:href="#BitstreamVeraSans-Roman-76"/>
      <use x="669.2734375" xlink:href="#BitstreamVeraSans-Roman-65"/>
      <use x="730.796875" xlink:href="#BitstreamVeraSans-Roman-6c"/>
      <use x="758.580078125" xlink:href="#BitstreamVeraSans-Roman-3d"/>
      <use x="842.369140625" xlink:href="#BitstreamVeraSans-Roman-34"/>
     </g>
    </g>
    <g id="line2d_33"/>
    <g id="line2d_34">
     <g>
      <use style="fill:#008000;stroke:#000000;stroke-width:0.5;" x="338.97375" xlink:href="#m5782f81d0e" y="83.19825"/>
      <use style="fill:#008000;stroke:#000000;stroke-width:0.5;" x="359.13375" xlink:href="#m5782f81d0e" y="83.19825"/>
     </g>
    </g>
    <g id="text_18">
     <!-- DRAM, level=4 -->
     <g transform="translate(374.97375 88.23825)scale(0.144 -0.144)">
      <use xlink:href="#BitstreamVeraSans-Roman-44"/>
      <use x="77.001953125" xlink:href="#BitstreamVeraSans-Roman-52"/>
      <use x="146.421875" xlink:href="#BitstreamVeraSans-Roman-41"/>
      <use x="214.830078125" xlink:href="#BitstreamVeraSans-Roman-4d"/>
      <use x="301.109375" xlink:href="#BitstreamVeraSans-Roman-2c"/>
      <use x="332.896484375" xlink:href="#BitstreamVeraSans-Roman-20"/>
      <use x="364.68359375" xlink:href="#BitstreamVeraSans-Roman-6c"/>
      <use x="392.466796875" xlink:href="#BitstreamVeraSans-Roman-65"/>
      <use x="453.990234375" xlink:href="#BitstreamVeraSans-Roman-76"/>
      <use x="513.169921875" xlink:href="#BitstreamVeraSans-Roman-65"/>
      <use x="574.693359375" xlink:href="#BitstreamVeraSans-Roman-6c"/>
      <use x="602.4765625" xlink:href="#BitstreamVeraSans-Roman-3d"/>
      <use x="686.265625" xlink:href="#BitstreamVeraSans-Roman-34"/>
     </g>
    </g>
   </g>
  </g>
 </g>
 <defs>
  <clipPath id="pa0eb743309">
   <rect height="345.6" width="446.4" x="72.0" y="43.2"/>
  </clipPath>
 </defs>
</svg>
